<mxfile host="Electron" agent="Mozilla/5.0 (Windows NT 10.0; Win64; x64) AppleWebKit/537.36 (KHTML, like Gecko) draw.io/26.2.2 Chrome/134.0.6998.178 Electron/35.1.2 Safari/537.36" version="26.2.2">
  <diagram name="Pagina-1" id="ktiO4YW000OlsocWe-1c">
    <mxGraphModel dx="2017" dy="1247" grid="1" gridSize="10" guides="1" tooltips="1" connect="1" arrows="1" fold="1" page="1" pageScale="1" pageWidth="827" pageHeight="1169" math="0" shadow="0">
      <root>
        <mxCell id="0" />
        <mxCell id="1" parent="0" />
        <mxCell id="oZclGVeHT3JY49Nqx3t2-1" value="&lt;font style=&quot;font-size: 15px;&quot;&gt;UTENTE&lt;/font&gt;" style="rounded=0;whiteSpace=wrap;html=1;" parent="1" vertex="1">
          <mxGeometry x="414" y="715" width="120" height="60" as="geometry" />
        </mxCell>
        <mxCell id="oZclGVeHT3JY49Nqx3t2-2" value="&lt;font style=&quot;font-size: 16px;&quot;&gt;VOLUME&lt;/font&gt;" style="rounded=0;whiteSpace=wrap;html=1;" parent="1" vertex="1">
          <mxGeometry x="774" y="715" width="120" height="60" as="geometry" />
        </mxCell>
        <mxCell id="oZclGVeHT3JY49Nqx3t2-3" value="&lt;i&gt;possiede&lt;/i&gt;" style="rhombus;whiteSpace=wrap;html=1;" parent="1" vertex="1">
          <mxGeometry x="614" y="705" width="80" height="80" as="geometry" />
        </mxCell>
        <mxCell id="oZclGVeHT3JY49Nqx3t2-4" value="" style="endArrow=none;html=1;rounded=0;exitX=1;exitY=0.5;exitDx=0;exitDy=0;entryX=0;entryY=0.5;entryDx=0;entryDy=0;" parent="1" source="oZclGVeHT3JY49Nqx3t2-3" target="oZclGVeHT3JY49Nqx3t2-2" edge="1">
          <mxGeometry width="50" height="50" relative="1" as="geometry">
            <mxPoint x="484" y="455" as="sourcePoint" />
            <mxPoint x="534" y="405" as="targetPoint" />
          </mxGeometry>
        </mxCell>
        <mxCell id="oZclGVeHT3JY49Nqx3t2-5" value="" style="endArrow=none;html=1;rounded=0;exitX=1;exitY=0.5;exitDx=0;exitDy=0;entryX=0;entryY=0.5;entryDx=0;entryDy=0;" parent="1" source="oZclGVeHT3JY49Nqx3t2-1" target="oZclGVeHT3JY49Nqx3t2-3" edge="1">
          <mxGeometry width="50" height="50" relative="1" as="geometry">
            <mxPoint x="484" y="465" as="sourcePoint" />
            <mxPoint x="564" y="455" as="targetPoint" />
          </mxGeometry>
        </mxCell>
        <mxCell id="oZclGVeHT3JY49Nqx3t2-6" value="&lt;font style=&quot;font-size: 15px;&quot;&gt;MANGA&lt;/font&gt;" style="rounded=0;whiteSpace=wrap;html=1;" parent="1" vertex="1">
          <mxGeometry x="774" y="385" width="120" height="60" as="geometry" />
        </mxCell>
        <mxCell id="oZclGVeHT3JY49Nqx3t2-7" value="&lt;i&gt;appartiene&lt;/i&gt;" style="rhombus;whiteSpace=wrap;html=1;" parent="1" vertex="1">
          <mxGeometry x="794" y="544.5" width="80" height="80" as="geometry" />
        </mxCell>
        <mxCell id="oZclGVeHT3JY49Nqx3t2-8" value="" style="endArrow=none;html=1;rounded=0;exitX=0.5;exitY=0;exitDx=0;exitDy=0;entryX=0.5;entryY=1;entryDx=0;entryDy=0;" parent="1" source="oZclGVeHT3JY49Nqx3t2-2" target="oZclGVeHT3JY49Nqx3t2-7" edge="1">
          <mxGeometry width="50" height="50" relative="1" as="geometry">
            <mxPoint x="534" y="495" as="sourcePoint" />
            <mxPoint x="584" y="445" as="targetPoint" />
          </mxGeometry>
        </mxCell>
        <mxCell id="oZclGVeHT3JY49Nqx3t2-9" value="" style="endArrow=none;html=1;rounded=0;exitX=0.5;exitY=0;exitDx=0;exitDy=0;entryX=0.5;entryY=1;entryDx=0;entryDy=0;" parent="1" source="oZclGVeHT3JY49Nqx3t2-7" target="oZclGVeHT3JY49Nqx3t2-6" edge="1">
          <mxGeometry width="50" height="50" relative="1" as="geometry">
            <mxPoint x="324" y="635" as="sourcePoint" />
            <mxPoint x="344" y="565" as="targetPoint" />
          </mxGeometry>
        </mxCell>
        <mxCell id="oZclGVeHT3JY49Nqx3t2-10" value="&lt;font style=&quot;font-size: 15px;&quot;&gt;AUTORE&lt;/font&gt;" style="rounded=0;whiteSpace=wrap;html=1;" parent="1" vertex="1">
          <mxGeometry x="414" y="455" width="120" height="60" as="geometry" />
        </mxCell>
        <mxCell id="oZclGVeHT3JY49Nqx3t2-11" value="&lt;i&gt;scrive&lt;/i&gt;" style="rhombus;whiteSpace=wrap;html=1;" parent="1" vertex="1">
          <mxGeometry x="614" y="445" width="80" height="80" as="geometry" />
        </mxCell>
        <mxCell id="oZclGVeHT3JY49Nqx3t2-12" value="" style="endArrow=none;html=1;rounded=0;exitX=0;exitY=0.75;exitDx=0;exitDy=0;entryX=1;entryY=0.5;entryDx=0;entryDy=0;" parent="1" source="oZclGVeHT3JY49Nqx3t2-6" target="oZclGVeHT3JY49Nqx3t2-11" edge="1">
          <mxGeometry width="50" height="50" relative="1" as="geometry">
            <mxPoint x="274" y="350" as="sourcePoint" />
            <mxPoint x="544" y="170" as="targetPoint" />
          </mxGeometry>
        </mxCell>
        <mxCell id="oZclGVeHT3JY49Nqx3t2-13" value="" style="endArrow=none;html=1;rounded=0;exitX=0;exitY=0.5;exitDx=0;exitDy=0;entryX=1;entryY=0.5;entryDx=0;entryDy=0;" parent="1" source="oZclGVeHT3JY49Nqx3t2-11" target="oZclGVeHT3JY49Nqx3t2-10" edge="1">
          <mxGeometry width="50" height="50" relative="1" as="geometry">
            <mxPoint x="284" y="360" as="sourcePoint" />
            <mxPoint x="304" y="290" as="targetPoint" />
          </mxGeometry>
        </mxCell>
        <mxCell id="oZclGVeHT3JY49Nqx3t2-14" value="&lt;font style=&quot;font-size: 15px;&quot;&gt;ARTISTA&lt;/font&gt;" style="rounded=0;whiteSpace=wrap;html=1;" parent="1" vertex="1">
          <mxGeometry x="414" y="315" width="120" height="60" as="geometry" />
        </mxCell>
        <mxCell id="oZclGVeHT3JY49Nqx3t2-15" value="&lt;i&gt;disegna&lt;/i&gt;" style="rhombus;whiteSpace=wrap;html=1;" parent="1" vertex="1">
          <mxGeometry x="614" y="305" width="80" height="80" as="geometry" />
        </mxCell>
        <mxCell id="oZclGVeHT3JY49Nqx3t2-16" value="" style="endArrow=none;html=1;rounded=0;exitX=0;exitY=0.25;exitDx=0;exitDy=0;entryX=1;entryY=0.5;entryDx=0;entryDy=0;" parent="1" source="oZclGVeHT3JY49Nqx3t2-6" target="oZclGVeHT3JY49Nqx3t2-15" edge="1">
          <mxGeometry width="50" height="50" relative="1" as="geometry">
            <mxPoint x="534" y="310" as="sourcePoint" />
            <mxPoint x="804" y="130" as="targetPoint" />
          </mxGeometry>
        </mxCell>
        <mxCell id="oZclGVeHT3JY49Nqx3t2-17" value="" style="endArrow=none;html=1;rounded=0;exitX=0;exitY=0.5;exitDx=0;exitDy=0;entryX=1;entryY=0.5;entryDx=0;entryDy=0;" parent="1" source="oZclGVeHT3JY49Nqx3t2-15" target="oZclGVeHT3JY49Nqx3t2-14" edge="1">
          <mxGeometry width="50" height="50" relative="1" as="geometry">
            <mxPoint x="544" y="320" as="sourcePoint" />
            <mxPoint x="564" y="250" as="targetPoint" />
          </mxGeometry>
        </mxCell>
        <mxCell id="oZclGVeHT3JY49Nqx3t2-18" value="&lt;font style=&quot;font-size: 15px;&quot;&gt;GENERE&lt;/font&gt;" style="rounded=0;whiteSpace=wrap;html=1;" parent="1" vertex="1">
          <mxGeometry x="774" y="125" width="120" height="60" as="geometry" />
        </mxCell>
        <mxCell id="oZclGVeHT3JY49Nqx3t2-19" value="&lt;i&gt;Ã¨ categorizzato in&lt;/i&gt;" style="rhombus;whiteSpace=wrap;html=1;" parent="1" vertex="1">
          <mxGeometry x="771" y="238" width="126" height="80" as="geometry" />
        </mxCell>
        <mxCell id="oZclGVeHT3JY49Nqx3t2-20" value="" style="endArrow=none;html=1;rounded=0;exitX=0.5;exitY=0;exitDx=0;exitDy=0;entryX=0.5;entryY=1;entryDx=0;entryDy=0;" parent="1" source="oZclGVeHT3JY49Nqx3t2-6" target="oZclGVeHT3JY49Nqx3t2-19" edge="1">
          <mxGeometry width="50" height="50" relative="1" as="geometry">
            <mxPoint x="584" y="330" as="sourcePoint" />
            <mxPoint x="854" y="150" as="targetPoint" />
          </mxGeometry>
        </mxCell>
        <mxCell id="oZclGVeHT3JY49Nqx3t2-21" value="" style="endArrow=none;html=1;rounded=0;exitX=0.5;exitY=0;exitDx=0;exitDy=0;entryX=0.5;entryY=1;entryDx=0;entryDy=0;" parent="1" source="oZclGVeHT3JY49Nqx3t2-19" target="oZclGVeHT3JY49Nqx3t2-18" edge="1">
          <mxGeometry width="50" height="50" relative="1" as="geometry">
            <mxPoint x="594" y="340" as="sourcePoint" />
            <mxPoint x="614" y="270" as="targetPoint" />
          </mxGeometry>
        </mxCell>
        <mxCell id="oZclGVeHT3JY49Nqx3t2-22" value="&lt;font style=&quot;font-size: 15px;&quot;&gt;RIVENDITORE&lt;/font&gt;" style="rounded=0;whiteSpace=wrap;html=1;" parent="1" vertex="1">
          <mxGeometry x="774" y="1024" width="120" height="60" as="geometry" />
        </mxCell>
        <mxCell id="oZclGVeHT3JY49Nqx3t2-23" value="&lt;i&gt;vende&lt;/i&gt;" style="rhombus;whiteSpace=wrap;html=1;" parent="1" vertex="1">
          <mxGeometry x="794" y="854" width="80" height="80" as="geometry" />
        </mxCell>
        <mxCell id="oZclGVeHT3JY49Nqx3t2-24" value="" style="endArrow=none;html=1;rounded=0;exitX=0.5;exitY=1;exitDx=0;exitDy=0;entryX=0.5;entryY=0;entryDx=0;entryDy=0;" parent="1" source="oZclGVeHT3JY49Nqx3t2-2" target="oZclGVeHT3JY49Nqx3t2-23" edge="1">
          <mxGeometry width="50" height="50" relative="1" as="geometry">
            <mxPoint x="765.28" y="769.3600000000001" as="sourcePoint" />
            <mxPoint x="813" y="524" as="targetPoint" />
          </mxGeometry>
        </mxCell>
        <mxCell id="oZclGVeHT3JY49Nqx3t2-25" value="" style="endArrow=none;html=1;rounded=0;exitX=0.5;exitY=1;exitDx=0;exitDy=0;entryX=0.5;entryY=0;entryDx=0;entryDy=0;" parent="1" source="oZclGVeHT3JY49Nqx3t2-23" target="oZclGVeHT3JY49Nqx3t2-22" edge="1">
          <mxGeometry width="50" height="50" relative="1" as="geometry">
            <mxPoint x="424" y="969" as="sourcePoint" />
            <mxPoint x="900" y="964" as="targetPoint" />
          </mxGeometry>
        </mxCell>
        <mxCell id="oZclGVeHT3JY49Nqx3t2-30" value="&lt;font style=&quot;font-size: 15px;&quot;&gt;EDITORE&lt;/font&gt;" style="rounded=0;whiteSpace=wrap;html=1;" parent="1" vertex="1">
          <mxGeometry x="1130" y="315" width="120" height="60" as="geometry" />
        </mxCell>
        <mxCell id="oZclGVeHT3JY49Nqx3t2-31" value="&lt;i&gt;produce&lt;/i&gt;" style="rhombus;whiteSpace=wrap;html=1;" parent="1" vertex="1">
          <mxGeometry x="974" y="305" width="80" height="80" as="geometry" />
        </mxCell>
        <mxCell id="oZclGVeHT3JY49Nqx3t2-32" value="" style="endArrow=none;html=1;rounded=0;entryX=0;entryY=0.5;entryDx=0;entryDy=0;exitX=1;exitY=0.25;exitDx=0;exitDy=0;" parent="1" source="oZclGVeHT3JY49Nqx3t2-6" target="oZclGVeHT3JY49Nqx3t2-31" edge="1">
          <mxGeometry width="50" height="50" relative="1" as="geometry">
            <mxPoint x="920" y="380" as="sourcePoint" />
            <mxPoint x="1434" y="50" as="targetPoint" />
          </mxGeometry>
        </mxCell>
        <mxCell id="oZclGVeHT3JY49Nqx3t2-33" value="" style="endArrow=none;html=1;rounded=0;exitX=1;exitY=0.5;exitDx=0;exitDy=0;entryX=0;entryY=0.5;entryDx=0;entryDy=0;" parent="1" source="oZclGVeHT3JY49Nqx3t2-31" target="oZclGVeHT3JY49Nqx3t2-30" edge="1">
          <mxGeometry width="50" height="50" relative="1" as="geometry">
            <mxPoint x="1174" y="240" as="sourcePoint" />
            <mxPoint x="1194" y="170" as="targetPoint" />
          </mxGeometry>
        </mxCell>
        <mxCell id="oZclGVeHT3JY49Nqx3t2-50" value="&lt;font style=&quot;font-size: 17px;&quot;&gt;N&lt;/font&gt;" style="text;html=1;align=center;verticalAlign=middle;whiteSpace=wrap;rounded=0;" parent="1" vertex="1">
          <mxGeometry x="729" y="715" width="60" height="30" as="geometry" />
        </mxCell>
        <mxCell id="oZclGVeHT3JY49Nqx3t2-51" value="&lt;font style=&quot;font-size: 17px;&quot;&gt;N&lt;/font&gt;" style="text;html=1;align=center;verticalAlign=middle;whiteSpace=wrap;rounded=0;" parent="1" vertex="1">
          <mxGeometry x="520" y="715" width="60" height="30" as="geometry" />
        </mxCell>
        <mxCell id="oZclGVeHT3JY49Nqx3t2-54" value="&lt;font style=&quot;font-size: 17px;&quot;&gt;N&lt;/font&gt;" style="text;html=1;align=center;verticalAlign=middle;whiteSpace=wrap;rounded=0;" parent="1" vertex="1">
          <mxGeometry x="794" y="994" width="60" height="30" as="geometry" />
        </mxCell>
        <mxCell id="oZclGVeHT3JY49Nqx3t2-57" value="&lt;font style=&quot;font-size: 17px;&quot;&gt;1&lt;/font&gt;" style="text;html=1;align=center;verticalAlign=middle;whiteSpace=wrap;rounded=0;" parent="1" vertex="1">
          <mxGeometry x="814" y="445" width="60" height="30" as="geometry" />
        </mxCell>
        <mxCell id="oZclGVeHT3JY49Nqx3t2-58" value="&lt;font style=&quot;font-size: 17px;&quot;&gt;N&lt;/font&gt;" style="text;html=1;align=center;verticalAlign=middle;whiteSpace=wrap;rounded=0;" parent="1" vertex="1">
          <mxGeometry x="819" y="685" width="60" height="30" as="geometry" />
        </mxCell>
        <mxCell id="oZclGVeHT3JY49Nqx3t2-61" value="&lt;font style=&quot;font-size: 17px;&quot;&gt;N&lt;/font&gt;" style="text;html=1;align=center;verticalAlign=middle;whiteSpace=wrap;rounded=0;" parent="1" vertex="1">
          <mxGeometry x="874" y="355" width="60" height="30" as="geometry" />
        </mxCell>
        <mxCell id="oZclGVeHT3JY49Nqx3t2-63" value="&lt;font style=&quot;font-size: 17px;&quot;&gt;1&lt;/font&gt;" style="text;html=1;align=center;verticalAlign=middle;whiteSpace=wrap;rounded=0;" parent="1" vertex="1">
          <mxGeometry x="1090" y="318" width="60" height="30" as="geometry" />
        </mxCell>
        <mxCell id="oZclGVeHT3JY49Nqx3t2-64" value="&lt;font style=&quot;font-size: 17px;&quot;&gt;N&lt;/font&gt;" style="text;html=1;align=center;verticalAlign=middle;whiteSpace=wrap;rounded=0;" parent="1" vertex="1">
          <mxGeometry x="520" y="455" width="60" height="30" as="geometry" />
        </mxCell>
        <mxCell id="oZclGVeHT3JY49Nqx3t2-65" value="&lt;font style=&quot;font-size: 17px;&quot;&gt;N&lt;/font&gt;" style="text;html=1;align=center;verticalAlign=middle;whiteSpace=wrap;rounded=0;" parent="1" vertex="1">
          <mxGeometry x="734" y="445" width="60" height="30" as="geometry" />
        </mxCell>
        <mxCell id="oZclGVeHT3JY49Nqx3t2-66" value="&lt;font style=&quot;font-size: 17px;&quot;&gt;N&lt;/font&gt;" style="text;html=1;align=center;verticalAlign=middle;whiteSpace=wrap;rounded=0;" parent="1" vertex="1">
          <mxGeometry x="520" y="315" width="60" height="30" as="geometry" />
        </mxCell>
        <mxCell id="oZclGVeHT3JY49Nqx3t2-67" value="&lt;font style=&quot;font-size: 17px;&quot;&gt;N&lt;/font&gt;" style="text;html=1;align=center;verticalAlign=middle;whiteSpace=wrap;rounded=0;" parent="1" vertex="1">
          <mxGeometry x="734" y="360" width="60" height="30" as="geometry" />
        </mxCell>
        <mxCell id="oZclGVeHT3JY49Nqx3t2-68" value="&lt;font style=&quot;font-size: 17px;&quot;&gt;N&lt;/font&gt;" style="text;html=1;align=center;verticalAlign=middle;whiteSpace=wrap;rounded=0;" parent="1" vertex="1">
          <mxGeometry x="814" y="185" width="60" height="30" as="geometry" />
        </mxCell>
        <mxCell id="oZclGVeHT3JY49Nqx3t2-69" value="&lt;font style=&quot;font-size: 17px;&quot;&gt;N&lt;/font&gt;" style="text;html=1;align=center;verticalAlign=middle;whiteSpace=wrap;rounded=0;" parent="1" vertex="1">
          <mxGeometry x="819" y="355" width="60" height="30" as="geometry" />
        </mxCell>
        <mxCell id="lMr6MkhpKEqP4DWhoH69-4" value="" style="ellipse;whiteSpace=wrap;html=1;aspect=fixed;fillColor=#000000;" parent="1" vertex="1">
          <mxGeometry x="440" y="688" width="8" height="8" as="geometry" />
        </mxCell>
        <mxCell id="lMr6MkhpKEqP4DWhoH69-5" value="" style="endArrow=none;html=1;rounded=0;exitX=0.25;exitY=0;exitDx=0;exitDy=0;" parent="1" source="oZclGVeHT3JY49Nqx3t2-1" target="lMr6MkhpKEqP4DWhoH69-4" edge="1">
          <mxGeometry width="50" height="50" relative="1" as="geometry">
            <mxPoint x="434" y="710" as="sourcePoint" />
            <mxPoint x="420" y="685" as="targetPoint" />
          </mxGeometry>
        </mxCell>
        <mxCell id="lMr6MkhpKEqP4DWhoH69-9" value="Nickname" style="text;html=1;align=center;verticalAlign=middle;whiteSpace=wrap;rounded=0;" parent="1" vertex="1">
          <mxGeometry x="414" y="660" width="60" height="30" as="geometry" />
        </mxCell>
        <mxCell id="lMr6MkhpKEqP4DWhoH69-20" value="" style="group" parent="1" vertex="1" connectable="0">
          <mxGeometry x="730" y="660" width="60" height="36" as="geometry" />
        </mxCell>
        <mxCell id="lMr6MkhpKEqP4DWhoH69-21" value="" style="ellipse;whiteSpace=wrap;html=1;aspect=fixed;fillColor=#000000;" parent="lMr6MkhpKEqP4DWhoH69-20" vertex="1">
          <mxGeometry x="26" y="28" width="8" height="8" as="geometry" />
        </mxCell>
        <mxCell id="lMr6MkhpKEqP4DWhoH69-23" value="ISBN" style="text;html=1;align=center;verticalAlign=middle;whiteSpace=wrap;rounded=0;" parent="lMr6MkhpKEqP4DWhoH69-20" vertex="1">
          <mxGeometry width="60" height="30" as="geometry" />
        </mxCell>
        <mxCell id="lMr6MkhpKEqP4DWhoH69-22" value="" style="endArrow=none;html=1;rounded=0;exitX=1;exitY=0;exitDx=0;exitDy=0;" parent="1" source="oZclGVeHT3JY49Nqx3t2-50" target="lMr6MkhpKEqP4DWhoH69-21" edge="1">
          <mxGeometry width="50" height="50" relative="1" as="geometry">
            <mxPoint x="760" y="700" as="sourcePoint" />
            <mxPoint x="726" y="655" as="targetPoint" />
          </mxGeometry>
        </mxCell>
        <mxCell id="lMr6MkhpKEqP4DWhoH69-24" value="" style="group" parent="1" vertex="1" connectable="0">
          <mxGeometry x="1130" y="260" width="60" height="36" as="geometry" />
        </mxCell>
        <mxCell id="lMr6MkhpKEqP4DWhoH69-25" value="" style="ellipse;whiteSpace=wrap;html=1;aspect=fixed;fillColor=#000000;" parent="lMr6MkhpKEqP4DWhoH69-24" vertex="1">
          <mxGeometry x="26" y="28" width="8" height="8" as="geometry" />
        </mxCell>
        <mxCell id="lMr6MkhpKEqP4DWhoH69-27" value="Cod_Editore" style="text;html=1;align=center;verticalAlign=middle;whiteSpace=wrap;rounded=0;" parent="lMr6MkhpKEqP4DWhoH69-24" vertex="1">
          <mxGeometry width="60" height="30" as="geometry" />
        </mxCell>
        <mxCell id="lMr6MkhpKEqP4DWhoH69-26" value="" style="endArrow=none;html=1;rounded=0;exitX=0.25;exitY=0;exitDx=0;exitDy=0;" parent="1" source="oZclGVeHT3JY49Nqx3t2-30" target="lMr6MkhpKEqP4DWhoH69-25" edge="1">
          <mxGeometry width="50" height="50" relative="1" as="geometry">
            <mxPoint x="1136" y="240" as="sourcePoint" />
            <mxPoint x="1102" y="195" as="targetPoint" />
          </mxGeometry>
        </mxCell>
        <mxCell id="lMr6MkhpKEqP4DWhoH69-29" value="" style="group" parent="1" vertex="1" connectable="0">
          <mxGeometry x="884" y="1024" width="96" height="36" as="geometry" />
        </mxCell>
        <mxCell id="lMr6MkhpKEqP4DWhoH69-30" value="" style="ellipse;whiteSpace=wrap;html=1;aspect=fixed;fillColor=#000000;" parent="lMr6MkhpKEqP4DWhoH69-29" vertex="1">
          <mxGeometry x="42" y="21" width="8" height="8" as="geometry" />
        </mxCell>
        <mxCell id="lMr6MkhpKEqP4DWhoH69-32" value="ID_Rivenditore" style="text;html=1;align=center;verticalAlign=middle;whiteSpace=wrap;rounded=0;" parent="lMr6MkhpKEqP4DWhoH69-29" vertex="1">
          <mxGeometry x="36" y="-7" width="60" height="30" as="geometry" />
        </mxCell>
        <mxCell id="lMr6MkhpKEqP4DWhoH69-31" value="" style="endArrow=none;html=1;rounded=0;exitX=1;exitY=0.5;exitDx=0;exitDy=0;entryX=0;entryY=0.5;entryDx=0;entryDy=0;" parent="1" source="oZclGVeHT3JY49Nqx3t2-22" target="lMr6MkhpKEqP4DWhoH69-30" edge="1">
          <mxGeometry width="50" height="50" relative="1" as="geometry">
            <mxPoint x="930" y="959" as="sourcePoint" />
            <mxPoint x="930" y="1034" as="targetPoint" />
          </mxGeometry>
        </mxCell>
        <mxCell id="lMr6MkhpKEqP4DWhoH69-49" value="" style="group" parent="1" vertex="1" connectable="0">
          <mxGeometry x="760" y="330" width="60" height="36" as="geometry" />
        </mxCell>
        <mxCell id="lMr6MkhpKEqP4DWhoH69-39" value="" style="group" parent="lMr6MkhpKEqP4DWhoH69-49" vertex="1" connectable="0">
          <mxGeometry width="60" height="36" as="geometry" />
        </mxCell>
        <mxCell id="lMr6MkhpKEqP4DWhoH69-40" value="" style="ellipse;whiteSpace=wrap;html=1;aspect=fixed;fillColor=#000000;" parent="lMr6MkhpKEqP4DWhoH69-39" vertex="1">
          <mxGeometry x="26" y="28" width="8" height="8" as="geometry" />
        </mxCell>
        <mxCell id="lMr6MkhpKEqP4DWhoH69-42" value="ID_Manga" style="text;html=1;align=center;verticalAlign=middle;whiteSpace=wrap;rounded=0;" parent="lMr6MkhpKEqP4DWhoH69-39" vertex="1">
          <mxGeometry width="60" height="30" as="geometry" />
        </mxCell>
        <mxCell id="lMr6MkhpKEqP4DWhoH69-41" value="" style="endArrow=none;html=1;rounded=0;exitX=0.25;exitY=0;exitDx=0;exitDy=0;" parent="lMr6MkhpKEqP4DWhoH69-49" source="oZclGVeHT3JY49Nqx3t2-6" target="lMr6MkhpKEqP4DWhoH69-40" edge="1">
          <mxGeometry width="50" height="50" relative="1" as="geometry">
            <mxPoint x="40" y="60" as="sourcePoint" />
            <mxPoint x="6" y="15" as="targetPoint" />
          </mxGeometry>
        </mxCell>
        <mxCell id="lMr6MkhpKEqP4DWhoH69-50" value="" style="group" parent="1" vertex="1" connectable="0">
          <mxGeometry x="700" y="120" width="60" height="36" as="geometry" />
        </mxCell>
        <mxCell id="lMr6MkhpKEqP4DWhoH69-51" value="" style="group" parent="lMr6MkhpKEqP4DWhoH69-50" vertex="1" connectable="0">
          <mxGeometry width="60" height="36" as="geometry" />
        </mxCell>
        <mxCell id="lMr6MkhpKEqP4DWhoH69-52" value="" style="ellipse;whiteSpace=wrap;html=1;aspect=fixed;fillColor=#000000;" parent="lMr6MkhpKEqP4DWhoH69-51" vertex="1">
          <mxGeometry x="26" y="28" width="8" height="8" as="geometry" />
        </mxCell>
        <mxCell id="lMr6MkhpKEqP4DWhoH69-53" value="ID_Genere" style="text;html=1;align=center;verticalAlign=middle;whiteSpace=wrap;rounded=0;" parent="lMr6MkhpKEqP4DWhoH69-51" vertex="1">
          <mxGeometry width="60" height="30" as="geometry" />
        </mxCell>
        <mxCell id="lMr6MkhpKEqP4DWhoH69-54" value="" style="endArrow=none;html=1;rounded=0;exitX=0;exitY=0.5;exitDx=0;exitDy=0;" parent="1" source="oZclGVeHT3JY49Nqx3t2-18" target="lMr6MkhpKEqP4DWhoH69-52" edge="1">
          <mxGeometry width="50" height="50" relative="1" as="geometry">
            <mxPoint x="740" y="170" as="sourcePoint" />
            <mxPoint x="706" y="125" as="targetPoint" />
          </mxGeometry>
        </mxCell>
        <mxCell id="lMr6MkhpKEqP4DWhoH69-55" value="" style="group" parent="1" vertex="1" connectable="0">
          <mxGeometry x="390" y="260" width="60" height="36" as="geometry" />
        </mxCell>
        <mxCell id="lMr6MkhpKEqP4DWhoH69-56" value="" style="group" parent="lMr6MkhpKEqP4DWhoH69-55" vertex="1" connectable="0">
          <mxGeometry width="60" height="36" as="geometry" />
        </mxCell>
        <mxCell id="lMr6MkhpKEqP4DWhoH69-57" value="" style="ellipse;whiteSpace=wrap;html=1;aspect=fixed;fillColor=#000000;" parent="lMr6MkhpKEqP4DWhoH69-56" vertex="1">
          <mxGeometry x="26" y="28" width="8" height="8" as="geometry" />
        </mxCell>
        <mxCell id="lMr6MkhpKEqP4DWhoH69-58" value="ID_Artista" style="text;html=1;align=center;verticalAlign=middle;whiteSpace=wrap;rounded=0;" parent="lMr6MkhpKEqP4DWhoH69-56" vertex="1">
          <mxGeometry width="60" height="30" as="geometry" />
        </mxCell>
        <mxCell id="lMr6MkhpKEqP4DWhoH69-60" value="" style="group" parent="1" vertex="1" connectable="0">
          <mxGeometry x="384" y="409" width="60" height="36" as="geometry" />
        </mxCell>
        <mxCell id="lMr6MkhpKEqP4DWhoH69-61" value="" style="group" parent="lMr6MkhpKEqP4DWhoH69-60" vertex="1" connectable="0">
          <mxGeometry width="60" height="36" as="geometry" />
        </mxCell>
        <mxCell id="lMr6MkhpKEqP4DWhoH69-62" value="" style="ellipse;whiteSpace=wrap;html=1;aspect=fixed;fillColor=#000000;" parent="lMr6MkhpKEqP4DWhoH69-61" vertex="1">
          <mxGeometry x="26" y="28" width="8" height="8" as="geometry" />
        </mxCell>
        <mxCell id="lMr6MkhpKEqP4DWhoH69-63" value="ID_Autore" style="text;html=1;align=center;verticalAlign=middle;whiteSpace=wrap;rounded=0;" parent="lMr6MkhpKEqP4DWhoH69-61" vertex="1">
          <mxGeometry width="60" height="30" as="geometry" />
        </mxCell>
        <mxCell id="lMr6MkhpKEqP4DWhoH69-59" value="" style="endArrow=none;html=1;rounded=0;exitX=0.25;exitY=0;exitDx=0;exitDy=0;" parent="1" source="oZclGVeHT3JY49Nqx3t2-14" target="lMr6MkhpKEqP4DWhoH69-57" edge="1">
          <mxGeometry width="50" height="50" relative="1" as="geometry">
            <mxPoint x="440" y="300" as="sourcePoint" />
            <mxPoint x="406" y="255" as="targetPoint" />
          </mxGeometry>
        </mxCell>
        <mxCell id="lMr6MkhpKEqP4DWhoH69-64" value="" style="endArrow=none;html=1;rounded=0;exitX=0.25;exitY=0;exitDx=0;exitDy=0;" parent="1" source="oZclGVeHT3JY49Nqx3t2-10" target="lMr6MkhpKEqP4DWhoH69-62" edge="1">
          <mxGeometry width="50" height="50" relative="1" as="geometry">
            <mxPoint x="370" y="450" as="sourcePoint" />
            <mxPoint x="336" y="405" as="targetPoint" />
          </mxGeometry>
        </mxCell>
        <mxCell id="lMr6MkhpKEqP4DWhoH69-83" value="" style="group" parent="1" vertex="1" connectable="0">
          <mxGeometry x="754" y="834" width="60" height="36" as="geometry" />
        </mxCell>
        <mxCell id="lMr6MkhpKEqP4DWhoH69-84" value="" style="group" parent="lMr6MkhpKEqP4DWhoH69-83" vertex="1" connectable="0">
          <mxGeometry width="60" height="36" as="geometry" />
        </mxCell>
        <mxCell id="lMr6MkhpKEqP4DWhoH69-85" value="" style="group" parent="lMr6MkhpKEqP4DWhoH69-84" vertex="1" connectable="0">
          <mxGeometry width="60" height="36" as="geometry" />
        </mxCell>
        <mxCell id="lMr6MkhpKEqP4DWhoH69-86" value="" style="ellipse;whiteSpace=wrap;html=1;aspect=fixed;fillColor=#FFFFFF;" parent="lMr6MkhpKEqP4DWhoH69-85" vertex="1">
          <mxGeometry x="26" y="28" width="8" height="8" as="geometry" />
        </mxCell>
        <mxCell id="lMr6MkhpKEqP4DWhoH69-87" value="Prezzo" style="text;html=1;align=center;verticalAlign=middle;whiteSpace=wrap;rounded=0;" parent="lMr6MkhpKEqP4DWhoH69-85" vertex="1">
          <mxGeometry width="60" height="30" as="geometry" />
        </mxCell>
        <mxCell id="lMr6MkhpKEqP4DWhoH69-88" value="" style="endArrow=none;html=1;rounded=0;exitX=0;exitY=0;exitDx=0;exitDy=0;" parent="1" source="oZclGVeHT3JY49Nqx3t2-23" target="lMr6MkhpKEqP4DWhoH69-86" edge="1">
          <mxGeometry width="50" height="50" relative="1" as="geometry">
            <mxPoint x="760" y="959" as="sourcePoint" />
            <mxPoint x="726" y="914" as="targetPoint" />
          </mxGeometry>
        </mxCell>
        <mxCell id="lMr6MkhpKEqP4DWhoH69-89" value="" style="group" parent="1" vertex="1" connectable="0">
          <mxGeometry x="850" y="894" width="86" height="47" as="geometry" />
        </mxCell>
        <mxCell id="lMr6MkhpKEqP4DWhoH69-90" value="" style="group" parent="lMr6MkhpKEqP4DWhoH69-89" vertex="1" connectable="0">
          <mxGeometry width="86" height="47" as="geometry" />
        </mxCell>
        <mxCell id="lMr6MkhpKEqP4DWhoH69-91" value="" style="group" parent="lMr6MkhpKEqP4DWhoH69-90" vertex="1" connectable="0">
          <mxGeometry width="86" height="47" as="geometry" />
        </mxCell>
        <mxCell id="lMr6MkhpKEqP4DWhoH69-92" value="" style="ellipse;whiteSpace=wrap;html=1;aspect=fixed;fillColor=#FFFFFF;" parent="lMr6MkhpKEqP4DWhoH69-91" vertex="1">
          <mxGeometry x="26" y="28" width="8" height="8" as="geometry" />
        </mxCell>
        <mxCell id="lMr6MkhpKEqP4DWhoH69-93" value="Usato" style="text;html=1;align=center;verticalAlign=middle;whiteSpace=wrap;rounded=0;" parent="lMr6MkhpKEqP4DWhoH69-91" vertex="1">
          <mxGeometry y="28" width="60" height="30" as="geometry" />
        </mxCell>
        <mxCell id="lMr6MkhpKEqP4DWhoH69-94" value="" style="endArrow=none;html=1;rounded=0;exitX=1;exitY=1;exitDx=0;exitDy=0;" parent="1" source="oZclGVeHT3JY49Nqx3t2-23" target="lMr6MkhpKEqP4DWhoH69-92" edge="1">
          <mxGeometry width="50" height="50" relative="1" as="geometry">
            <mxPoint x="820" y="969" as="sourcePoint" />
            <mxPoint x="786" y="924" as="targetPoint" />
          </mxGeometry>
        </mxCell>
        <mxCell id="lMr6MkhpKEqP4DWhoH69-95" value="" style="group" parent="1" vertex="1" connectable="0">
          <mxGeometry x="950" y="674" width="60" height="36" as="geometry" />
        </mxCell>
        <mxCell id="lMr6MkhpKEqP4DWhoH69-96" value="" style="group" parent="lMr6MkhpKEqP4DWhoH69-95" vertex="1" connectable="0">
          <mxGeometry width="60" height="36" as="geometry" />
        </mxCell>
        <mxCell id="lMr6MkhpKEqP4DWhoH69-97" value="" style="group" parent="lMr6MkhpKEqP4DWhoH69-96" vertex="1" connectable="0">
          <mxGeometry x="-220" y="249" width="60" height="36" as="geometry" />
        </mxCell>
        <mxCell id="lMr6MkhpKEqP4DWhoH69-98" value="" style="ellipse;whiteSpace=wrap;html=1;aspect=fixed;fillColor=#FFFFFF;" parent="lMr6MkhpKEqP4DWhoH69-97" vertex="1">
          <mxGeometry x="50" width="8" height="8" as="geometry" />
        </mxCell>
        <mxCell id="lMr6MkhpKEqP4DWhoH69-99" value="QualitÃ " style="text;html=1;align=center;verticalAlign=middle;whiteSpace=wrap;rounded=0;" parent="lMr6MkhpKEqP4DWhoH69-97" vertex="1">
          <mxGeometry x="24" y="3" width="60" height="30" as="geometry" />
        </mxCell>
        <mxCell id="lMr6MkhpKEqP4DWhoH69-100" value="" style="endArrow=none;html=1;rounded=0;exitX=0;exitY=1;exitDx=0;exitDy=0;" parent="1" source="oZclGVeHT3JY49Nqx3t2-23" target="lMr6MkhpKEqP4DWhoH69-98" edge="1">
          <mxGeometry width="50" height="50" relative="1" as="geometry">
            <mxPoint x="730" y="1099" as="sourcePoint" />
            <mxPoint x="696" y="1054" as="targetPoint" />
          </mxGeometry>
        </mxCell>
        <mxCell id="lMr6MkhpKEqP4DWhoH69-101" value="&lt;font&gt;(0,1)&lt;/font&gt;" style="text;html=1;align=center;verticalAlign=middle;whiteSpace=wrap;rounded=0;" parent="1" vertex="1">
          <mxGeometry x="754" y="894" width="60" height="30" as="geometry" />
        </mxCell>
        <mxCell id="mI1VWQpK52-kNfuDHJaz-8" value="&lt;font style=&quot;font-size: 15px;&quot;&gt;COPERTINA&lt;/font&gt;" style="rounded=0;whiteSpace=wrap;html=1;" parent="1" vertex="1">
          <mxGeometry x="1130" y="715" width="120" height="60" as="geometry" />
        </mxCell>
        <mxCell id="mI1VWQpK52-kNfuDHJaz-9" value="&lt;i&gt;possiedeV&lt;/i&gt;" style="rhombus;whiteSpace=wrap;html=1;" parent="1" vertex="1">
          <mxGeometry x="974" y="705" width="80" height="80" as="geometry" />
        </mxCell>
        <mxCell id="mI1VWQpK52-kNfuDHJaz-10" value="" style="endArrow=none;html=1;rounded=0;entryX=0;entryY=0.5;entryDx=0;entryDy=0;exitX=1;exitY=0.5;exitDx=0;exitDy=0;" parent="1" source="oZclGVeHT3JY49Nqx3t2-2" target="mI1VWQpK52-kNfuDHJaz-9" edge="1">
          <mxGeometry width="50" height="50" relative="1" as="geometry">
            <mxPoint x="900" y="740" as="sourcePoint" />
            <mxPoint x="1540" y="42" as="targetPoint" />
          </mxGeometry>
        </mxCell>
        <mxCell id="mI1VWQpK52-kNfuDHJaz-11" value="" style="endArrow=none;html=1;rounded=0;exitX=1;exitY=0.5;exitDx=0;exitDy=0;entryX=0;entryY=0.5;entryDx=0;entryDy=0;" parent="1" source="mI1VWQpK52-kNfuDHJaz-9" target="mI1VWQpK52-kNfuDHJaz-8" edge="1">
          <mxGeometry width="50" height="50" relative="1" as="geometry">
            <mxPoint x="1280" y="232" as="sourcePoint" />
            <mxPoint x="1300" y="162" as="targetPoint" />
          </mxGeometry>
        </mxCell>
        <mxCell id="mI1VWQpK52-kNfuDHJaz-12" value="" style="group" parent="1" vertex="1" connectable="0">
          <mxGeometry x="1090" y="769" width="60" height="36" as="geometry" />
        </mxCell>
        <mxCell id="mI1VWQpK52-kNfuDHJaz-13" value="" style="ellipse;whiteSpace=wrap;html=1;aspect=fixed;fillColor=#000000;" parent="mI1VWQpK52-kNfuDHJaz-12" vertex="1">
          <mxGeometry x="26" y="28" width="8" height="8" as="geometry" />
        </mxCell>
        <mxCell id="mI1VWQpK52-kNfuDHJaz-15" value="" style="endArrow=none;html=1;rounded=0;exitX=0.25;exitY=1;exitDx=0;exitDy=0;entryX=1;entryY=0;entryDx=0;entryDy=0;" parent="1" source="mI1VWQpK52-kNfuDHJaz-8" target="mI1VWQpK52-kNfuDHJaz-13" edge="1">
          <mxGeometry width="50" height="50" relative="1" as="geometry">
            <mxPoint x="1269.83" y="377" as="sourcePoint" />
            <mxPoint x="897" y="877" as="targetPoint" />
          </mxGeometry>
        </mxCell>
        <mxCell id="mI1VWQpK52-kNfuDHJaz-18" value="&lt;font style=&quot;font-size: 17px;&quot;&gt;1&lt;/font&gt;" style="text;html=1;align=center;verticalAlign=middle;whiteSpace=wrap;rounded=0;" parent="1" vertex="1">
          <mxGeometry x="874" y="705" width="60" height="30" as="geometry" />
        </mxCell>
        <mxCell id="mI1VWQpK52-kNfuDHJaz-19" value="&lt;font style=&quot;font-size: 17px;&quot;&gt;1&lt;/font&gt;" style="text;html=1;align=center;verticalAlign=middle;whiteSpace=wrap;rounded=0;" parent="1" vertex="1">
          <mxGeometry x="1090" y="715" width="60" height="30" as="geometry" />
        </mxCell>
        <mxCell id="11MKscK9ygyFu_FW1fu8-2" value="&lt;i&gt;possiedeM&lt;/i&gt;" style="rhombus;whiteSpace=wrap;html=1;" parent="1" vertex="1">
          <mxGeometry x="974" y="505" width="80" height="80" as="geometry" />
        </mxCell>
        <mxCell id="11MKscK9ygyFu_FW1fu8-3" value="" style="endArrow=none;html=1;rounded=0;entryX=0;entryY=0.5;entryDx=0;entryDy=0;exitX=1;exitY=0.75;exitDx=0;exitDy=0;" parent="1" source="oZclGVeHT3JY49Nqx3t2-6" target="11MKscK9ygyFu_FW1fu8-2" edge="1">
          <mxGeometry width="50" height="50" relative="1" as="geometry">
            <mxPoint x="1100" y="500" as="sourcePoint" />
            <mxPoint x="1736" y="-80" as="targetPoint" />
          </mxGeometry>
        </mxCell>
        <mxCell id="11MKscK9ygyFu_FW1fu8-4" value="" style="endArrow=none;html=1;rounded=0;exitX=1;exitY=0.5;exitDx=0;exitDy=0;entryX=0.5;entryY=0;entryDx=0;entryDy=0;" parent="1" source="11MKscK9ygyFu_FW1fu8-2" target="mI1VWQpK52-kNfuDHJaz-8" edge="1">
          <mxGeometry width="50" height="50" relative="1" as="geometry">
            <mxPoint x="1230" y="492" as="sourcePoint" />
            <mxPoint x="1236" y="602" as="targetPoint" />
          </mxGeometry>
        </mxCell>
        <mxCell id="mI1VWQpK52-kNfuDHJaz-14" value="NomeFile" style="text;html=1;align=center;verticalAlign=middle;whiteSpace=wrap;rounded=0;" parent="1" vertex="1">
          <mxGeometry x="1090" y="800" width="60" height="30" as="geometry" />
        </mxCell>
        <mxCell id="11MKscK9ygyFu_FW1fu8-7" value="&lt;font style=&quot;font-size: 17px;&quot;&gt;1&lt;/font&gt;" style="text;html=1;align=center;verticalAlign=middle;whiteSpace=wrap;rounded=0;" parent="1" vertex="1">
          <mxGeometry x="879" y="415" width="60" height="30" as="geometry" />
        </mxCell>
        <mxCell id="11MKscK9ygyFu_FW1fu8-8" value="&lt;font style=&quot;font-size: 17px;&quot;&gt;1&lt;/font&gt;" style="text;html=1;align=center;verticalAlign=middle;whiteSpace=wrap;rounded=0;" parent="1" vertex="1">
          <mxGeometry x="1170" y="685" width="60" height="30" as="geometry" />
        </mxCell>
        <mxCell id="oZclGVeHT3JY49Nqx3t2-55" value="&lt;font style=&quot;font-size: 17px;&quot;&gt;N&lt;/font&gt;" style="text;html=1;align=center;verticalAlign=middle;whiteSpace=wrap;rounded=0;" parent="1" vertex="1">
          <mxGeometry x="789" y="775" width="60" height="30" as="geometry" />
        </mxCell>
      </root>
    </mxGraphModel>
  </diagram>
</mxfile>
